<svg width="75" height="75" viewBox="0 0 75 75" fill="none" xmlns="http://www.w3.org/2000/svg">
<g id="128561063_GIU AMA 255-07 4">
<path id="Vector" d="M56.2651 60.92C56.2409 61.0582 56.2317 61.2006 56.234 61.3407C56.2391 61.6676 56.2953 61.992 56.3034 62.3188C56.3212 63.0445 55.8998 63.5973 56.1038 64.3507C56.1972 64.695 56.5471 65.343 56.938 65.3338C57.3271 65.3246 57.5669 64.8769 57.679 64.5445C57.8492 64.04 58.0121 63.579 58.2531 63.1022C58.3694 62.8719 58.4829 62.6351 58.5748 62.3918C57.7327 61.9957 56.9805 61.5274 56.4442 61.0837C56.3806 61.0311 56.3213 60.9763 56.2651 60.92Z" fill="#1F2A50"/>
<path id="Vector_2" d="M64.9593 61.821C65.0538 61.9284 65.1458 62.0386 65.2422 62.1441C65.5171 62.445 65.8701 62.7624 66.2568 62.6784C66.5773 62.6088 66.7961 62.2649 66.8308 61.9204C66.8654 61.5755 66.7521 61.2334 66.6119 60.9199C66.2714 60.1577 65.768 59.495 65.2116 58.8981C65.2276 59.0647 65.2432 59.2318 65.2547 59.3993C65.3105 60.2025 65.2532 61.0966 64.9593 61.821Z" fill="#1F2A50"/>
<path id="Vector_3" d="M65.3694 64.1259C65.2591 63.4649 65.0329 62.8359 64.7496 62.2377C64.5647 62.5388 64.3239 62.7924 64.0104 62.9684C63.7032 63.1408 63.3562 63.2497 62.9836 63.3075C63.2186 63.8555 63.4703 64.3957 63.7438 64.9235C63.9337 65.2906 64.1953 65.6955 64.5892 65.7226C64.9157 65.7451 65.2123 65.4747 65.3316 65.152C65.451 64.8291 65.4267 64.4675 65.3694 64.1259Z" fill="#1F2A50"/>
<path id="Vector_4" d="M60.5571 63.1149C60.5679 63.1694 60.5789 63.2235 60.5906 63.2776C60.7283 63.9315 60.892 64.5793 61.0811 65.2189C61.1991 65.6184 61.3801 66.07 61.7614 66.179C62.077 66.2692 62.4184 66.0662 62.5952 65.7746C62.7722 65.4832 62.8158 65.1234 62.8233 64.7767C62.8339 64.2937 62.7815 63.8146 62.6901 63.3431C62.0253 63.3975 61.2921 63.3037 60.5571 63.1149Z" fill="#1F2A50"/>
<path id="Vector_5" d="M55.1783 43.5956C55.2715 44.3896 55.2513 45.1988 55.112 45.9853C54.9782 46.7414 54.8085 47.5044 54.8309 48.2788C54.8699 49.6367 55.5793 51.1438 56.0975 52.3669C56.234 52.689 56.3768 53.011 56.5267 53.3312C57.6183 55.6625 59.0831 57.8974 61.148 59.3315C61.6685 59.692 62.2451 60.0061 62.866 60.0377C63.5222 60.0711 64.1638 59.7809 64.6907 59.3649C64.821 59.2618 65.0002 59.0438 65.2029 58.7991C64.5407 52.2336 60.548 46.3141 55.6274 42.428C55.4979 42.3256 55.351 42.2115 55.1933 42.0964C55.2901 42.5733 55.2654 43.0911 55.1783 43.5956Z" fill="#EBF2E5"/>
<path id="Vector_6" d="M64.7496 62.2377C64.8301 62.1072 64.8996 61.9679 64.9593 61.821C65.2532 61.0966 65.3104 60.2024 65.2546 59.3993C65.2431 59.2317 65.2276 59.0647 65.2116 58.8981C65.2085 58.865 65.2064 58.832 65.2029 58.7992C65.0002 59.0438 64.821 59.2619 64.6907 59.3649C64.1637 59.781 63.5222 60.0711 62.866 60.0377C62.245 60.0062 61.6685 59.692 61.148 59.3315C59.0831 57.8974 57.6183 55.6625 56.5267 53.3313C56.3768 53.011 56.234 52.6891 56.0975 52.3669C55.5793 51.1439 54.8698 49.6367 54.8309 48.2789C54.8085 47.5044 54.9782 46.7414 55.112 45.9853C55.2513 45.1988 55.2714 44.3897 55.1783 43.5956C55.1747 43.617 55.1713 43.6386 55.1673 43.6599C55.1279 43.8747 55.0777 44.0869 55.0206 44.2917C54.9941 44.3871 54.9651 44.4817 54.9363 44.5765C54.9533 44.7183 54.9561 44.8618 54.9439 45.0003C54.8923 45.5917 54.6385 46.1377 54.4508 46.697C54.138 47.6289 54.0454 48.5764 54.0752 49.5272C54.1168 50.848 54.3943 52.1757 54.6449 53.4765C55.3816 57.2983 57.3813 60.8819 60.4436 63.0848C60.4814 63.095 60.5194 63.1052 60.5572 63.1149C61.2922 63.3037 62.0254 63.3975 62.6902 63.3431C62.7898 63.3348 62.8873 63.3225 62.9837 63.3075C63.3563 63.2496 63.7033 63.1408 64.0105 62.9683C64.3239 62.7924 64.5647 62.5388 64.7496 62.2377Z" fill="#C6CAD6"/>
<path id="Vector_7" d="M54.6449 53.4765C54.3943 52.1757 54.1167 50.8481 54.0752 49.5272C54.0454 48.5764 54.1379 47.6289 54.4507 46.697C54.6384 46.1377 54.8922 45.5917 54.9438 45.0003C54.956 44.8617 54.9532 44.7183 54.9362 44.5765C54.428 46.2385 53.5629 47.7763 52.4265 49.0411C52.3062 49.6245 52.169 50.2045 52.0184 50.7813C52.5979 51.8298 53.1286 52.9085 53.6079 54.0123C53.6245 54.0511 53.6414 54.0898 53.6581 54.1286C54.1919 55.3698 54.6608 56.6425 55.0614 57.9386C55.3949 59.0171 55.4833 60.1365 56.2651 60.92C56.3213 60.9763 56.3805 61.0311 56.4441 61.0836C56.9804 61.5273 57.7326 61.9957 58.5748 62.3917C59.1674 62.6704 59.8047 62.9122 60.4435 63.0848C57.3812 60.8819 55.3815 57.2983 54.6449 53.4765Z" fill="#A1A8C3"/>
<path id="Vector_8" d="M53.0778 40.38C53.384 41.203 53.5606 42.0804 53.5981 42.9644C53.6062 43.1567 53.6099 43.3583 53.6987 43.5266C53.7716 43.665 53.9218 43.7427 54.0999 43.78C54.4234 43.8477 54.8396 43.7829 55.0548 43.7107C55.0926 43.6979 55.1299 43.68 55.1673 43.6599C55.1713 43.6386 55.1747 43.617 55.1783 43.5957C55.2654 43.0912 55.2901 42.5733 55.1933 42.0964C55.1268 41.7697 55.0043 41.4618 54.8058 41.1915C54.4006 40.6401 53.7322 40.3618 53.0689 40.3704C53.0695 40.3787 53.07 40.3871 53.0702 40.3952C53.0729 40.3902 53.0754 40.3851 53.0778 40.38Z" fill="#203A73"/>
<path id="Vector_9" d="M54.0999 43.78C53.9218 43.7426 53.7716 43.665 53.6987 43.5265C53.6099 43.3582 53.6062 43.1566 53.5981 42.9643C53.5606 42.0803 53.384 41.203 53.0778 40.3799C53.0754 40.385 53.0729 40.3901 53.0702 40.3951C53.0828 40.6208 53.0949 40.8464 53.1028 41.0723C53.1338 41.9646 53.1282 42.8579 53.0874 43.7499C53.0532 44.4972 52.9966 45.2432 52.9127 45.9867C52.7974 47.0107 52.6345 48.0303 52.4265 49.041C53.563 47.7762 54.4281 46.2384 54.9362 44.5764C54.9651 44.4816 54.9941 44.3871 55.0206 44.2917C55.0777 44.0868 55.1278 43.8746 55.1673 43.6598C55.1298 43.6799 55.0926 43.6978 55.0548 43.7106C54.8396 43.7828 54.4234 43.8476 54.0999 43.78Z" fill="#1F2A50"/>
<path id="Vector_10" d="M18.5304 61.0836C17.9941 61.5272 17.2419 61.9956 16.3998 62.3916C16.4917 62.635 16.6052 62.8718 16.7215 63.1021C16.9625 63.5789 17.1254 64.0399 17.2955 64.5443C17.4076 64.8768 17.6475 65.3245 18.0367 65.3337C18.4276 65.3429 18.7775 64.6949 18.8707 64.3506C19.0746 63.5972 18.6534 63.0443 18.6712 62.3187C18.6794 61.9919 18.7354 61.6675 18.7406 61.3406C18.7428 61.2005 18.7337 61.0581 18.7094 60.9199C18.6532 60.9763 18.5941 61.031 18.5304 61.0836Z" fill="#1F2A50"/>
<path id="Vector_11" d="M9.71989 59.3993C9.73156 59.2318 9.74711 59.0647 9.76307 58.8981C9.20676 59.495 8.70329 60.1577 8.36271 60.9199C8.2226 61.2334 8.10916 61.5755 8.14389 61.9204C8.17849 62.2649 8.39745 62.6088 8.71777 62.6784C9.10472 62.7625 9.45765 62.445 9.73238 62.1441C9.8288 62.0386 9.92076 61.9284 10.0153 61.821C9.72136 61.0966 9.66425 60.2025 9.71989 59.3993Z" fill="#1F2A50"/>
<path id="Vector_12" d="M10.225 62.2377C9.94193 62.8359 9.71559 63.4649 9.6051 64.1259C9.54798 64.4675 9.52371 64.8291 9.64303 65.1521C9.76224 65.4747 10.0589 65.7451 10.3853 65.7227C10.7794 65.6955 11.0408 65.2907 11.231 64.9235C11.5042 64.3957 11.756 63.8555 11.9912 63.3076C11.6185 63.2497 11.2713 63.1408 10.9643 62.9684C10.6507 62.7924 10.41 62.5388 10.225 62.2377Z" fill="#1F2A50"/>
<path id="Vector_13" d="M12.2844 63.3431C12.193 63.8146 12.1407 64.2936 12.1512 64.7767C12.1588 65.1234 12.2022 65.4832 12.3792 65.7746C12.5562 66.0663 12.8975 66.2693 13.2131 66.179C13.5944 66.07 13.7754 65.6184 13.8934 65.2189C14.0825 64.5794 14.2462 63.9315 14.3841 63.2776C14.3955 63.2236 14.4065 63.1694 14.4175 63.1149C13.6825 63.3037 12.9494 63.3975 12.2844 63.3431Z" fill="#1F2A50"/>
<path id="Vector_14" d="M10.3885 59.3697C10.9153 59.786 11.557 60.0761 12.2132 60.0427C12.8341 60.0111 13.4108 59.697 13.9312 59.3363C15.9959 57.9022 17.4608 55.6676 18.5525 53.3364C18.7024 53.0161 18.8453 52.6942 18.9817 52.372C19.4999 51.149 20.2092 49.6418 20.2483 48.2838C20.2707 47.5094 20.101 46.7463 19.967 45.9904C19.8484 45.32 19.8179 44.6335 19.8684 43.9535C19.7272 43.3407 19.6616 42.6871 19.7813 42.0964C19.6235 42.2115 19.4767 42.3257 19.3472 42.428C14.4532 46.293 10.4777 52.1694 9.78314 58.6925C10.0242 58.9808 10.2387 59.2515 10.3885 59.3697Z" fill="#EBF2E5"/>
<path id="Vector_15" d="M20.4343 53.4816C20.6851 52.1806 20.9626 50.8532 21.0041 49.532C21.0338 48.5814 20.9413 47.6339 20.6285 46.702C20.4406 46.1426 20.187 45.5963 20.1352 45.0053C20.1309 44.9556 20.1285 44.9054 20.1277 44.855C20.0658 44.6687 20.0069 44.4812 19.9539 44.2917C19.926 44.1915 19.9003 44.089 19.876 43.9858C19.8735 43.9752 19.871 43.9645 19.8684 43.9536C19.818 44.6335 19.8484 45.32 19.9671 45.9904C20.101 46.7463 20.2708 47.5094 20.2484 48.2838C20.2092 49.6418 19.4999 51.149 18.9817 52.372C18.8453 52.6942 18.7024 53.0161 18.5525 53.3364C17.4608 55.6676 15.996 57.9022 13.9312 59.3363C13.4109 59.697 12.8342 60.0111 12.2132 60.0427C11.557 60.0761 10.9153 59.7859 10.3885 59.3697C10.2388 59.2515 10.0242 58.9808 9.78313 58.6926C9.77575 58.7609 9.76957 58.8295 9.76302 58.8981C9.74706 59.0647 9.73151 59.2317 9.71984 59.3993C9.66419 60.2024 9.72131 61.0966 10.0152 61.8209C10.0749 61.9679 10.1446 62.1072 10.2249 62.2377C10.4099 62.5388 10.6506 62.7924 10.9642 62.9684C11.2713 63.1408 11.6184 63.2497 11.9912 63.3075C12.0873 63.3224 12.1848 63.3348 12.2844 63.3431C12.9493 63.3975 13.6824 63.3037 14.4175 63.1149C14.5158 63.0895 14.614 63.0625 14.7121 63.034C17.7311 60.8266 19.704 57.2713 20.4343 53.4816Z" fill="#C6CAD6"/>
<path id="Vector_16" d="M20.1277 44.855C20.1285 44.9054 20.1309 44.9556 20.1352 45.0053C20.187 45.5963 20.4406 46.1426 20.6285 46.702C20.9413 47.6339 21.0338 48.5814 21.004 49.532C20.9626 50.8532 20.685 52.1806 20.4343 53.4816C19.704 57.2713 17.7311 60.8266 14.7121 63.0341C15.2899 62.866 15.863 62.6438 16.3998 62.3917C17.2418 61.9957 17.994 61.5273 18.5303 61.0836C18.594 61.0311 18.6531 60.9763 18.7093 60.92C19.4913 60.1365 19.5798 59.0171 19.913 57.9386C20.3135 56.6425 20.7826 55.3698 21.3164 54.1286C21.333 54.0898 21.35 54.0511 21.3667 54.0123C21.8159 52.9775 22.3129 51.9661 22.8505 50.9797C22.6585 50.262 22.4922 49.5382 22.3477 48.8101C21.3718 47.6636 20.6121 46.3112 20.1277 44.855Z" fill="#A1A8C3"/>
<path id="Vector_17" d="M19.8684 43.9536C19.8709 43.9645 19.8735 43.9752 19.8761 43.9859C19.9436 44.0141 20.0184 44.0268 20.0912 44.0227C20.3114 44.0099 20.619 43.887 20.8452 43.7128C20.9523 43.6303 21.0411 43.5362 21.0938 43.4372C21.1682 43.2966 21.1858 43.1317 21.2061 42.9722C21.2953 42.2741 21.4693 41.5887 21.7195 40.9359C21.7268 40.7483 21.7392 40.5611 21.7498 40.3736C21.1393 40.4073 20.5421 40.6834 20.1688 41.1915C19.9703 41.4619 19.8477 41.7695 19.7814 42.0965C19.6617 42.6872 19.7272 43.3408 19.8684 43.9536Z" fill="#203A73"/>
<path id="Vector_18" d="M21.7133 41.1901C21.7159 41.1056 21.7161 41.0206 21.7195 40.9359C21.4693 41.5886 21.2953 42.274 21.2061 42.9721C21.1857 43.1316 21.1681 43.2965 21.0937 43.4371C21.0411 43.5362 20.9523 43.6303 20.8452 43.7127C20.619 43.8868 20.3114 44.0098 20.0912 44.0226C20.0184 44.0267 19.9436 44.0141 19.876 43.9858C19.9003 44.089 19.926 44.1915 19.9539 44.2917C20.0069 44.4812 20.0658 44.6686 20.1277 44.855C20.6121 46.3112 21.3718 47.6636 22.3477 48.81C22.2398 48.2674 22.1451 47.7227 22.0639 47.1757C22.005 46.7801 21.951 46.3838 21.9062 45.9867C21.7267 44.3948 21.6633 42.7909 21.7133 41.1901Z" fill="#1F2A50"/>
<path id="Vector_19" d="M28.9453 62.1349C29.0189 62.2833 29.0952 62.4303 29.1773 62.5742C31.0335 64.4561 33.3895 65.7795 35.9027 66.3445C37.429 66.6878 39.0091 66.7508 40.556 66.5408C41.5131 66.2601 42.426 65.8318 43.2541 65.241C44.3485 64.4609 45.2614 63.3728 45.8751 62.1342C42.0817 63.6333 32.7405 63.6335 28.9453 62.1349Z" fill="#1F2A50"/>
<path id="Vector_20" d="M53.1029 41.0723C51.1278 42.0148 49.0447 42.7225 46.917 43.2091C45.5463 43.5225 44.156 43.7466 42.7575 43.8853C39.48 44.21 36.1293 44.0346 32.8628 43.6334C28.9859 43.1571 25.276 42.5909 21.7133 41.1902C21.6633 42.7909 21.7268 44.3948 21.9062 45.9867C21.9509 46.3839 22.005 46.7802 22.0638 47.1758C23.5984 48.4547 25.169 49.6853 26.8774 50.6807C31.3329 53.2769 37.4484 54.4731 42.4626 53.1025C42.5258 53.0852 42.589 53.0676 42.6518 53.0494C44.9763 52.3801 47.5024 49.8192 49.2438 48.1412C50.6392 46.7965 51.9252 45.3246 53.0874 43.75C53.1282 42.858 53.1338 41.9646 53.1029 41.0723Z" fill="#EBF2E5"/>
<path id="Vector_21" d="M34.2702 60.7508C31.4416 60.4483 28.6464 59.767 25.9819 58.7151C26.4472 59.55 26.9468 60.3668 27.4844 61.1602C27.7388 61.5356 28.2498 61.8602 28.9453 62.1349C32.7404 63.6335 42.0817 63.6333 45.8751 62.1342C46.5699 61.8596 47.0802 61.5353 47.3345 61.1602C47.8304 60.4284 48.2925 59.6757 48.7268 58.9086C48.3036 59.0672 47.8783 59.2199 47.4491 59.36C43.2002 60.7473 38.6936 61.2242 34.2702 60.7508Z" fill="#C6CAD6"/>
<path id="Vector_22" d="M52.9127 45.9867C52.9966 45.2433 53.0532 44.4973 53.0874 43.75C51.9252 45.3246 50.6392 46.7965 49.2438 48.1413C47.5023 49.8192 44.9762 52.3801 42.6518 53.0494C42.5889 53.0676 42.5257 53.0852 42.4626 53.1025C37.4483 54.4731 31.3329 53.277 26.8773 50.6808C25.169 49.6853 23.5983 48.4547 22.0638 47.1758C22.145 47.7228 22.2397 48.2675 22.3476 48.8101C22.4922 49.5382 22.6584 50.262 22.8504 50.9797C23.5466 53.5823 24.5523 56.107 25.8512 58.4819C26.761 58.8476 27.6861 59.1717 28.6238 59.4498C32.866 60.7078 37.3348 61.065 41.7066 60.4905C44.141 60.1706 46.5461 59.5665 48.8552 58.6832C50.2415 56.1899 51.3012 53.5277 52.0184 50.7813C52.169 50.2044 52.3062 49.6245 52.4265 49.0411C52.6345 48.0304 52.7974 47.0107 52.9127 45.9867Z" fill="#C6CAD6"/>
<path id="Vector_23" d="M41.7067 60.4905C37.335 61.065 32.8661 60.7078 28.6239 59.4498C27.6862 59.1717 26.7611 58.8476 25.8513 58.4819C25.894 58.5599 25.9385 58.6374 25.982 58.7151C28.6465 59.767 31.4417 60.4484 34.2703 60.7508C38.6936 61.2242 43.2003 60.7473 47.4492 59.36C47.8784 59.2199 48.3037 59.0672 48.7268 58.9086C48.7696 58.8334 48.8133 58.7588 48.8553 58.6831C46.5462 59.5665 44.1411 60.1706 41.7067 60.4905Z" fill="#203A73"/>
<path id="Vector_24" d="M21.7133 41.1902C25.276 42.5909 28.9859 43.1571 32.8627 43.6334C36.1292 44.0345 39.4799 44.21 42.7575 43.8853C44.1559 43.7466 45.5462 43.5225 46.917 43.2091C49.0447 42.7225 51.1278 42.0148 53.1028 41.0723C53.0949 40.8464 53.0828 40.6209 53.0703 40.3951C53.07 40.387 53.0695 40.3787 53.0689 40.3704C53.0574 40.1649 53.0458 39.9593 53.0306 39.7539C47.9962 40.2754 26.8226 40.2754 21.7886 39.7539C21.773 39.9603 21.7613 40.1669 21.7498 40.3735C21.7392 40.561 21.7267 40.7482 21.7195 40.9359C21.7161 41.0206 21.7159 41.1056 21.7133 41.1902Z" fill="#A1A8C3"/>
<path id="Vector_25" d="M15.1063 23.5258C15.2804 22.7203 15.5493 21.3505 15.6019 21.1571C15.8622 20.1992 16.1723 19.2552 16.5354 18.3355C16.5988 18.175 16.6783 17.9468 16.7754 17.7034C17.1031 16.5067 17.4974 15.3369 17.9534 14.2093C18.0045 14.0832 18.0561 13.9573 18.1083 13.8315C17.2567 14.0275 16.5301 14.272 16.2374 14.5314C15.7793 14.9375 15.476 15.4707 15.2012 16.0028C14.0276 18.2768 13.3876 20.6374 13.2159 23.0131C13.6247 23.3166 14.0516 23.5927 14.497 23.8313C14.7448 23.964 15.0444 23.8125 15.1063 23.5258Z" fill="#203A73"/>
<path id="Vector_26" d="M59.6176 16.0028C59.343 15.4708 59.0398 14.9376 58.5814 14.5314C58.2884 14.2717 57.5609 14.0271 56.7085 13.8311C56.7617 13.9564 56.8141 14.0824 56.8654 14.2093C57.5473 15.8949 58.0932 17.6745 58.4796 19.4984C58.6458 19.7561 58.8079 19.9394 58.9116 20.2481C59.1661 21.0068 59.3799 21.7721 59.6417 22.5251C59.7217 22.7553 59.8062 22.9843 59.8978 23.2116C60.533 22.9296 61.0682 22.5384 61.5067 22.043C61.2468 19.9958 60.6314 17.9669 59.6176 16.0028Z" fill="#203A73"/>
<path id="Vector_27" d="M61.6525 24.3112C61.6517 23.5541 61.6026 22.7974 61.5069 22.043C61.0683 22.5384 60.5332 22.9296 59.8979 23.2116C59.8063 22.9843 59.7218 22.7553 59.6418 22.5251C59.38 21.7721 59.1662 21.0067 58.9117 20.2481C58.808 19.9394 58.6459 19.7561 58.4797 19.4984C58.8058 21.0372 59.0177 22.6075 59.1011 24.1798C59.24 26.807 59.02 29.4397 58.3698 31.9398C58.0991 32.9809 57.7261 34.0975 57.2414 35.1779C58.149 34.9088 58.9335 34.5911 59.2266 34.2924C59.6573 33.8537 59.9252 33.2995 60.1644 32.7485C61.3729 29.9657 61.8327 27.1162 61.6525 24.3112Z" fill="#1F2A50"/>
<path id="Vector_28" d="M15.6869 25.0021C15.7462 22.5388 16.1281 20.0681 16.7754 17.7034C16.6783 17.9469 16.5988 18.175 16.5354 18.3355C16.1723 19.2552 15.8622 20.1992 15.6019 21.1572C15.5494 21.3505 15.2804 22.7204 15.1064 23.5258C15.0444 23.8125 14.7449 23.964 14.4971 23.8314C14.0517 23.5927 13.6248 23.3167 13.2159 23.0132C13.1847 23.4456 13.1671 23.8783 13.1666 24.3112C12.9862 27.1162 13.4462 29.9657 14.6546 32.7485C14.8939 33.2995 15.1617 33.8537 15.5923 34.2924C15.8854 34.5911 16.67 34.9088 17.5778 35.1779C17.0929 34.0975 16.7199 32.981 16.4492 31.9398C15.867 29.7006 15.6305 27.3548 15.6869 25.0021Z" fill="#1F2A50"/>
<path id="Vector_29" d="M58.4797 19.4984C58.0932 17.6745 57.5474 15.8949 56.8655 14.2093C56.8142 14.0824 56.7618 13.9564 56.7086 13.831C56.0063 12.1731 55.1306 10.648 53.7194 9.50416C51.2238 7.48181 23.904 7.54775 21.0998 9.50416C19.6151 10.54 18.8018 12.1592 18.1083 13.8315C18.0562 13.9573 18.0046 14.0832 17.9535 14.2093C17.4975 15.3368 17.1031 16.5067 16.7754 17.7033C16.1281 20.0681 15.7462 22.5388 15.687 25.0021C16.1235 25.5387 16.5999 26.0391 17.1089 26.4979C17.8392 27.1565 18.7333 28.1905 19.7118 27.4741C20.4786 26.9127 20.3278 25.8979 20.4007 25.0304C20.4777 24.1148 20.5647 23.1877 20.7669 22.292C20.8868 21.7606 21.0302 21.2342 21.1958 20.7159C21.5872 18.5753 22.4018 16.5425 23.8335 14.9422C24.2037 14.5284 30.8835 14.3794 37.4096 14.4147C43.9356 14.3794 50.6154 14.5284 50.9856 14.9422C52.193 16.2918 52.9607 17.9494 53.4069 19.7193C53.5152 19.9507 53.6177 20.1851 53.7118 20.4233C54.0583 21.3015 54.2776 22.1658 54.3972 23.1047L54.7843 26.1508C54.8509 26.6738 55.3728 26.9871 55.8271 26.7716C56.7325 26.3422 57.5802 25.8057 58.3113 25.093C58.6129 24.799 58.8731 24.4939 59.1012 24.1798C59.0177 22.6075 58.8057 21.0372 58.4797 19.4984Z" fill="#EBF2E5"/>
<path id="Vector_30" d="M59.1011 24.1798C58.873 24.494 58.6128 24.799 58.3112 25.093C57.5801 25.8057 56.7324 26.3422 55.827 26.7716C55.3727 26.9871 54.8508 26.6738 54.7842 26.1508L54.3971 23.1047C54.2775 22.1658 54.0582 21.3016 53.7117 20.4234C53.6176 20.1851 53.5151 19.9507 53.4068 19.7193C53.703 20.895 53.858 22.1201 53.9031 23.3384C54.0186 23.996 54.0897 24.6679 54.1143 25.3423C54.2112 28.0007 53.4991 34.2443 51.9419 35.034C50.1951 35.9196 26.0707 35.0721 24.3374 34.9214C22.8971 34.7962 22.4174 33.9865 21.9879 32.5293C21.6179 31.273 21.3955 29.9392 21.3331 28.599C20.8781 26.2227 20.7074 23.3859 21.1958 20.7159C21.0302 21.2341 20.8867 21.7605 20.7668 22.292C20.5646 23.1877 20.4776 24.1148 20.4007 25.0304C20.3277 25.8979 20.4786 26.9127 19.7118 27.4741C18.7332 28.1905 17.8392 27.1565 17.1088 26.4979C16.5999 26.0391 16.1235 25.5387 15.6869 25.0021C15.6304 27.3548 15.867 29.7005 16.4491 31.9398C16.7199 32.9809 17.0929 34.0975 17.5777 35.1778C18.3369 36.8698 19.3725 38.4721 20.7355 39.5495C20.8308 39.6246 21.1994 39.6929 21.7886 39.7539C26.8225 40.2754 47.9962 40.2754 53.0306 39.7539C53.6196 39.6929 53.9883 39.6246 54.0835 39.5495C55.4465 38.4721 56.482 36.8698 57.2414 35.1778C57.7261 34.0975 58.0991 32.9809 58.3698 31.9398C59.02 29.4398 59.24 26.807 59.1011 24.1798Z" fill="#C6CAD6"/>
<path id="Vector_31" d="M51.2782 34.0675C50.8646 34.3264 44.0601 34.4526 37.4095 34.4463C30.7589 34.4526 23.9542 34.3264 23.5407 34.0675C22.8252 33.6194 21.8766 31.4383 21.3331 28.5991C21.3955 29.9392 21.6179 31.273 21.9879 32.5293C22.4174 33.9865 22.8971 34.7962 24.3374 34.9214C26.0707 35.0721 50.1951 35.9196 51.9419 35.034C53.4991 34.2444 54.2112 28.0008 54.1143 25.3423C54.0896 24.668 54.0186 23.996 53.9031 23.3384C54.0925 28.4147 52.3988 33.3658 51.2782 34.0675Z" fill="#A1A8C3"/>
<path id="Vector_32" d="M53.9032 23.3384C53.858 22.1201 53.703 20.8951 53.4068 19.7193C52.9606 17.9494 52.193 16.2918 50.9855 14.9423C50.6153 14.5285 43.9355 14.3795 37.4095 14.4148C30.8834 14.3795 24.2036 14.5285 23.8334 14.9423C22.4017 16.5426 21.5872 18.5753 21.1957 20.7159C20.7074 23.3859 20.8781 26.2228 21.333 28.5991C21.8766 31.4384 22.8253 33.6195 23.5407 34.0676C23.9542 34.3264 30.7588 34.4526 37.4094 34.4464C44.06 34.4526 50.8645 34.3264 51.2782 34.0676C52.3988 33.3659 54.0925 28.4147 53.9032 23.3384Z" fill="#1F2A50"/>
<path id="Vector_33" d="M23.542 22.877C23.3313 23.9993 23.1596 25.1903 23.5293 26.2654C24.1225 27.9898 25.9015 28.1349 27.3928 28.0694C27.4512 28.0669 27.5101 28.0633 27.5685 28.0607C27.3308 27.5772 27.2069 27.0201 27.1757 26.4879C27.0985 25.1753 27.2334 20.1092 27.857 19.3907C28.7666 18.3427 30.7283 18.3316 31.6473 19.3907C32.2709 20.1095 32.4058 25.1753 32.3286 26.4879C32.3034 26.9159 32.2181 27.3595 32.0623 27.7685C34.3294 27.5737 36.5999 27.3022 38.8387 26.9232C40.0578 26.7168 41.2713 26.4749 42.4786 26.2017C42.4318 24.5626 42.5868 20.0646 43.1717 19.3906C44.0813 18.3427 46.0429 18.3316 46.962 19.3906C47.4077 19.9043 47.6036 22.6377 47.6512 24.6352C48.2318 24.3357 48.7826 23.9576 49.2991 23.4511C50.3575 22.4127 51.2317 20.7261 50.5348 19.2075C50.1398 18.3461 49.3778 17.7229 48.5491 17.3411C47.7206 16.9595 46.8203 16.7931 45.9289 16.6385C40.0355 15.6157 33.9693 14.9617 28.1193 16.2346C27.3907 16.3931 26.5842 16.5677 25.9323 16.9658C25.3578 17.3168 25.0671 17.9791 24.7775 18.6042C24.1554 19.9475 23.8164 21.4164 23.542 22.877Z" fill="#203A73"/>
<path id="Vector_34" d="M31.6473 19.3907C30.7283 18.3317 28.7666 18.3428 27.8569 19.3907C27.2333 20.1093 27.0984 25.1753 27.1757 26.4879C27.2069 27.0201 27.3308 27.5772 27.5685 28.0608C27.7573 28.4452 28.018 28.7835 28.362 29.0257C29.1084 29.5514 30.3718 29.5683 31.1422 29.0257C31.571 28.7236 31.8703 28.2726 32.0623 27.7685C32.2181 27.3596 32.3033 26.9159 32.3286 26.4879C32.4058 25.1753 32.2709 20.1095 31.6473 19.3907Z" fill="#3EC0F0"/>
<path id="Vector_35" d="M43.1716 19.3907C42.5868 20.0646 42.4318 24.5626 42.4786 26.2018C42.4817 26.3102 42.4857 26.4065 42.4905 26.4879C42.5466 27.4433 42.9 28.4787 43.6768 29.0257C44.4231 29.5513 45.6864 29.5682 46.4568 29.0257C47.2338 28.4787 47.5871 27.4433 47.6433 26.4879C47.6653 26.1135 47.6701 25.4327 47.6512 24.6353C47.6036 22.6378 47.4077 19.9044 46.962 19.3907C46.0429 18.3317 44.0813 18.3428 43.1716 19.3907Z" fill="#3EC0F0"/>
<path id="Vector_36" d="M35.9027 66.3446C33.3894 65.7795 31.0335 64.4561 29.1772 62.5742C29.7791 63.63 30.6017 64.5544 31.565 65.2411C33.2721 66.4587 35.3409 66.9864 37.4092 66.9577C38.4748 66.9724 39.54 66.8395 40.556 66.5409C39.0091 66.7509 37.4289 66.6879 35.9027 66.3446Z" fill="#203A73"/>
</g>
</svg>
