<svg width="272" height="73" viewBox="0 0 272 73" fill="none" xmlns="http://www.w3.org/2000/svg">
<path d="M128.455 30.5859C128.455 31.9302 128.252 33.131 127.847 34.1883C127.459 35.2456 126.94 36.182 126.288 36.9977C125.636 37.7982 124.87 38.4854 123.989 39.0594C123.126 39.6333 122.227 40.1091 121.293 40.4867C120.36 40.8492 119.408 41.1135 118.44 41.2797C117.488 41.4458 116.59 41.5289 115.744 41.5289H112.97V52.2H106.046V41.5289H103.298C102.452 41.5289 101.545 41.4458 100.576 41.2797C99.6248 41.1135 98.6734 40.8492 97.7221 40.4867C96.7884 40.1091 95.89 39.6333 95.0268 39.0594C94.1635 38.4854 93.3972 37.7982 92.7278 36.9977C92.0759 36.182 91.5474 35.2456 91.1422 34.1883C90.7547 33.1159 90.5609 31.9151 90.5609 30.5859V19.7109H97.4315V30.5859C97.4315 31.3563 97.5724 32.051 97.8543 32.6703C98.1361 33.2745 98.5325 33.7956 99.0434 34.2336C99.5543 34.6716 100.171 35.0115 100.893 35.2531C101.633 35.4797 102.452 35.593 103.351 35.593H115.744C116.396 35.5023 117.065 35.3891 117.752 35.2531C118.44 35.1021 119.065 34.8529 119.629 34.5055C120.192 34.1581 120.659 33.6747 121.029 33.0555C121.399 32.4362 121.584 31.613 121.584 30.5859V19.7109H128.455V30.5859Z" fill="white"/>
<path d="M171.607 52.2H164.737V44.225H140.584V52.2H133.713V35.9555C133.713 33.5841 134.189 31.4016 135.14 29.4078C136.092 27.4141 137.413 25.6997 139.104 24.2648C140.795 22.8299 142.795 21.7122 145.103 20.9117C147.41 20.1112 149.93 19.7109 152.66 19.7109H168.145C168.621 19.7109 169.07 19.7865 169.493 19.9375C169.916 20.0885 170.286 20.3 170.603 20.5719C170.92 20.8438 171.167 21.1609 171.343 21.5234C171.519 21.8859 171.607 22.2711 171.607 22.6789V52.2ZM140.584 38.3344H164.737V25.6016H152.66C152.449 25.6016 152 25.6318 151.313 25.6922C150.643 25.7375 149.859 25.8659 148.961 26.0773C148.08 26.2888 147.146 26.6135 146.16 27.0516C145.173 27.4896 144.266 28.0938 143.438 28.8641C142.61 29.6344 141.923 30.601 141.377 31.7641C140.848 32.912 140.584 34.3091 140.584 35.9555V38.3344Z" fill="white"/>
<path d="M210.954 38.9234H189.233V32.9875H210.954V38.9234ZM214.02 25.6016H186.485V52.2H179.614V22.6789C179.614 22.2711 179.702 21.8859 179.878 21.5234C180.054 21.1609 180.292 20.8438 180.592 20.5719C180.909 20.3 181.279 20.0885 181.702 19.9375C182.124 19.7865 182.582 19.7109 183.076 19.7109H214.02V25.6016Z" fill="white"/>
<path d="M256.221 52.2H249.35V44.225H225.198V52.2H218.327V35.9555C218.327 33.5841 218.803 31.4016 219.754 29.4078C220.705 27.4141 222.027 25.6997 223.718 24.2648C225.409 22.8299 227.409 21.7122 229.716 20.9117C232.024 20.1112 234.543 19.7109 237.274 19.7109H252.759C253.235 19.7109 253.684 19.7865 254.107 19.9375C254.53 20.0885 254.9 20.3 255.217 20.5719C255.534 20.8438 255.781 21.1609 255.957 21.5234C256.133 21.8859 256.221 22.2711 256.221 22.6789V52.2ZM225.198 38.3344H249.35V25.6016H237.274C237.063 25.6016 236.613 25.6318 235.926 25.6922C235.257 25.7375 234.473 25.8659 233.574 26.0773C232.694 26.2888 231.76 26.6135 230.773 27.0516C229.787 27.4896 228.88 28.0938 228.052 28.8641C227.224 29.6344 226.537 30.601 225.99 31.7641C225.462 32.912 225.198 34.3091 225.198 35.9555V38.3344Z" fill="white"/>
<path d="M271.151 52.2H264.281V19.7109H271.151V52.2Z" fill="white"/>
<path d="M63.4377 58.8894C63.4104 59.0229 63.4001 59.1606 63.4027 59.296C63.4084 59.612 63.4717 59.9256 63.4808 60.2415C63.501 60.943 63.0258 61.4774 63.2559 62.2056C63.3611 62.5384 63.7557 63.1649 64.1963 63.156C64.635 63.147 64.9055 62.7143 65.0319 62.393C65.2237 61.9053 65.4074 61.4597 65.6791 60.9988C65.8103 60.7762 65.9382 60.5472 66.0419 60.312C65.0924 59.9292 64.2443 59.4764 63.6396 59.0476C63.5679 58.9967 63.5011 58.9438 63.4377 58.8894Z" fill="#1F2A50"/>
<path d="M73.2402 59.7603C73.3467 59.8641 73.4505 59.9706 73.5591 60.0726C73.869 60.3635 74.2671 60.6703 74.7031 60.5891C75.0644 60.5218 75.3111 60.1894 75.3503 59.8563C75.3893 59.523 75.2615 59.1922 75.1034 58.8892C74.7196 58.1525 74.1519 57.5118 73.5247 56.9348C73.5427 57.0959 73.5602 57.2573 73.5732 57.4193C73.6361 58.1957 73.5716 59.06 73.2402 59.7603Z" fill="#1F2A50"/>
<path d="M73.7026 61.9884C73.5782 61.3494 73.3232 60.7414 73.0038 60.1631C72.7953 60.4541 72.5238 60.6993 72.1703 60.8694C71.824 61.0361 71.4327 61.1413 71.0126 61.1973C71.2777 61.727 71.5614 62.2491 71.8698 62.7593C72.0838 63.1143 72.3788 63.5056 72.8229 63.5319C73.1911 63.5536 73.5254 63.2922 73.66 62.9803C73.7946 62.6681 73.7672 62.3185 73.7026 61.9884Z" fill="#1F2A50"/>
<path d="M68.2768 61.0111C68.289 61.0637 68.3015 61.116 68.3146 61.1683C68.4699 61.8004 68.6545 62.4267 68.8676 63.0449C69.0007 63.431 69.2047 63.8676 69.6347 63.973C69.9905 64.0602 70.3754 63.864 70.5748 63.5821C70.7744 63.3004 70.8235 62.9526 70.832 62.6174C70.844 62.1505 70.7848 61.6874 70.6817 61.2316C69.9322 61.2843 69.1056 61.1936 68.2768 61.0111Z" fill="#1F2A50"/>
<path d="M62.2123 42.1424C62.3174 42.91 62.2947 43.6921 62.1376 44.4524C61.9868 45.1833 61.7953 45.9209 61.8206 46.6695C61.8646 47.9821 62.6645 49.439 63.2487 50.6213C63.4027 50.9327 63.5637 51.2439 63.7327 51.5535C64.9634 53.8071 66.615 55.9674 68.943 57.3538C69.5299 57.7022 70.1799 58.0059 70.88 58.0364C71.6199 58.0687 72.3433 57.7882 72.9374 57.386C73.0843 57.2864 73.2863 57.0756 73.5149 56.8391C72.7682 50.4924 68.2666 44.7702 62.7187 41.0137C62.5727 40.9148 62.407 40.8044 62.2293 40.6931C62.3384 41.1541 62.3106 41.6547 62.2123 42.1424Z" fill="#EBF2E5"/>
<path d="M73.0038 60.1631C73.0945 60.037 73.1729 59.9023 73.2402 59.7603C73.5716 59.06 73.6361 58.1957 73.5732 57.4193C73.5602 57.2573 73.5427 57.0959 73.5247 56.9348C73.5212 56.9028 73.5188 56.8709 73.5149 56.8391C73.2863 57.0756 73.0843 57.2864 72.9374 57.386C72.3433 57.7882 71.6199 58.0687 70.88 58.0364C70.1799 58.0059 69.5299 57.7022 68.943 57.3538C66.615 55.9674 64.9634 53.8071 63.7327 51.5535C63.5637 51.2439 63.4027 50.9327 63.2487 50.6213C62.6645 49.439 61.8646 47.9821 61.8206 46.6695C61.7953 45.9209 61.9868 45.1833 62.1376 44.4524C62.2947 43.6921 62.3174 42.91 62.2123 42.1424C62.2082 42.163 62.2044 42.1839 62.1999 42.2046C62.1555 42.4122 62.0989 42.6173 62.0345 42.8153C62.0046 42.9075 61.9719 42.9989 61.9394 43.0906C61.9586 43.2277 61.9618 43.3663 61.9481 43.5003C61.8899 44.0719 61.6037 44.5997 61.3921 45.1404C61.0394 46.0413 60.935 46.9572 60.9686 47.8763C61.0155 49.1531 61.3284 50.4365 61.611 51.6939C62.4415 55.3883 64.6962 58.8525 68.1488 60.9819C68.1915 60.9918 68.2342 61.0018 68.2768 61.0111C69.1056 61.1936 69.9322 61.2843 70.6817 61.2316C70.794 61.2237 70.9039 61.2117 71.0126 61.1973C71.4327 61.1413 71.824 61.0361 72.1703 60.8694C72.5238 60.6993 72.7953 60.4541 73.0038 60.1631Z" fill="#C6CAD6"/>
<path d="M61.611 51.6939C61.3284 50.4365 61.0155 49.1531 60.9686 47.8763C60.935 46.9572 61.0394 46.0413 61.3921 45.1404C61.6037 44.5997 61.8899 44.0719 61.9481 43.5003C61.9618 43.3663 61.9586 43.2277 61.9394 43.0906C61.3665 44.6972 60.391 46.1837 59.1097 47.4064C58.9741 47.9703 58.8195 48.531 58.6497 49.0885C59.3031 50.1021 59.9014 51.1449 60.4417 52.2119C60.4604 52.2494 60.4795 52.2868 60.4984 52.3243C61.1002 53.5241 61.6289 54.7544 62.0806 56.0073C62.4566 57.0498 62.5562 58.1319 63.4377 58.8894C63.5011 58.9438 63.5679 58.9967 63.6396 59.0476C64.2443 59.4764 65.0924 59.9292 66.0419 60.312C66.7101 60.5815 67.4286 60.8151 68.1488 60.9819C64.6962 58.8525 62.4415 55.3883 61.611 51.6939Z" fill="#A1A8C3"/>
<path d="M59.844 39.0339C60.1893 39.8295 60.3884 40.6777 60.4307 41.5322C60.4398 41.7181 60.444 41.913 60.5441 42.0757C60.6263 42.2095 60.7957 42.2846 60.9964 42.3207C61.3612 42.3861 61.8305 42.3234 62.0731 42.2536C62.1157 42.2412 62.1577 42.2239 62.1999 42.2046C62.2044 42.1839 62.2082 42.163 62.2123 42.1424C62.3106 41.6547 62.3384 41.1541 62.2293 40.6931C62.1543 40.3774 62.0161 40.0798 61.7924 39.8184C61.3355 39.2854 60.5819 39.0164 59.834 39.0247C59.8346 39.0327 59.8352 39.0408 59.8355 39.0487C59.8386 39.0438 59.8413 39.0389 59.844 39.0339Z" fill="#203A73"/>
<path d="M60.9964 42.3207C60.7957 42.2846 60.6263 42.2095 60.5441 42.0757C60.444 41.913 60.4398 41.7181 60.4307 41.5322C60.3884 40.6777 60.1893 39.8295 59.844 39.0339C59.8413 39.0389 59.8386 39.0438 59.8355 39.0487C59.8497 39.2669 59.8633 39.4848 59.8722 39.7032C59.9071 40.5657 59.9008 41.4293 59.8549 42.2916C59.8163 43.0139 59.7525 43.7351 59.6579 44.4537C59.5279 45.4437 59.3442 46.4294 59.1097 47.4064C60.391 46.1837 61.3665 44.6972 61.9394 43.0906C61.9719 42.9989 62.0046 42.9075 62.0345 42.8153C62.0989 42.6173 62.1555 42.4122 62.1999 42.2046C62.1577 42.2239 62.1157 42.2412 62.0731 42.2536C61.8305 42.3234 61.3612 42.3861 60.9964 42.3207Z" fill="#1F2A50"/>
<path d="M20.8926 59.0475C20.2879 59.4763 19.4398 59.9291 18.4905 60.3119C18.594 60.5472 18.722 60.7761 18.8531 60.9987C19.1248 61.4596 19.3085 61.9052 19.5003 62.3928C19.6267 62.7143 19.8971 63.147 20.336 63.1559C20.7767 63.1648 21.1713 62.5383 21.2763 62.2055C21.5062 61.4772 21.0313 60.9428 21.0514 60.2414C21.0606 59.9255 21.1238 59.6119 21.1296 59.2958C21.1321 59.1605 21.1218 59.0228 21.0944 58.8892C21.0311 58.9437 20.9644 58.9966 20.8926 59.0475Z" fill="#1F2A50"/>
<path d="M10.9589 57.4193C10.9721 57.2573 10.9896 57.0959 11.0076 56.9348C10.3804 57.5118 9.81272 58.1524 9.42874 58.8892C9.27076 59.1922 9.14286 59.523 9.18202 59.8563C9.22103 60.1894 9.4679 60.5218 9.82906 60.5891C10.2653 60.6704 10.6632 60.3635 10.973 60.0726C11.0817 59.9707 11.1854 59.8641 11.292 59.7603C10.9606 59.06 10.8962 58.1957 10.9589 57.4193Z" fill="#1F2A50"/>
<path d="M11.5284 60.1631C11.2093 60.7414 10.9541 61.3494 10.8295 61.9884C10.7651 62.3186 10.7378 62.6681 10.8723 62.9803C11.0067 63.2922 11.3412 63.5536 11.7092 63.5319C12.1535 63.5056 12.4483 63.1143 12.6626 62.7594C12.9707 62.2492 13.2547 61.727 13.5198 61.1973C13.0995 61.1414 12.7081 61.0361 12.3619 60.8694C12.0084 60.6993 11.737 60.4541 11.5284 60.1631Z" fill="#1F2A50"/>
<path d="M13.8504 61.2316C13.7473 61.6874 13.6884 62.1505 13.7002 62.6174C13.7088 62.9526 13.7578 63.3004 13.9573 63.5821C14.1568 63.864 14.5416 64.0603 14.8975 63.973C15.3274 63.8676 15.5315 63.431 15.6645 63.0449C15.8777 62.4267 16.0622 61.8004 16.2178 61.1683C16.2306 61.1161 16.243 61.0637 16.2555 61.0111C15.4267 61.1936 14.6001 61.2843 13.8504 61.2316Z" fill="#1F2A50"/>
<path d="M11.7128 57.3907C12.3068 57.7931 13.0303 58.0735 13.7701 58.0412C14.4702 58.0107 15.1204 57.707 15.7071 57.3584C18.0351 55.9721 19.6867 53.812 20.9175 51.5585C21.0865 51.2489 21.2477 50.9377 21.4014 50.6263C21.9857 49.444 22.7855 47.987 22.8296 46.6743C22.8548 45.9257 22.6634 45.1881 22.5124 44.4574C22.3786 43.8093 22.3443 43.1457 22.4012 42.4884C22.242 41.896 22.1681 41.2642 22.3031 40.6931C22.1251 40.8044 21.9596 40.9148 21.8136 41.0137C16.2957 44.7499 11.8134 50.4304 11.0303 56.7361C11.3021 57.0148 11.544 57.2764 11.7128 57.3907Z" fill="#EBF2E5"/>
<path d="M23.0393 51.6989C23.322 50.4412 23.6349 49.1581 23.6816 47.881C23.7152 46.962 23.6109 46.0461 23.2582 45.1452C23.0464 44.6045 22.7604 44.0764 22.702 43.5051C22.6972 43.457 22.6945 43.4085 22.6936 43.3599C22.6237 43.1797 22.5574 42.9985 22.4976 42.8153C22.4661 42.7184 22.4371 42.6194 22.4098 42.5196C22.4069 42.5093 22.4041 42.499 22.4012 42.4884C22.3443 43.1457 22.3786 43.8093 22.5124 44.4574C22.6634 45.1881 22.8548 45.9257 22.8296 46.6743C22.7855 47.987 21.9857 49.444 21.4014 50.6263C21.2477 50.9377 21.0865 51.2489 20.9175 51.5585C19.6867 53.812 18.0351 55.9721 15.7071 57.3584C15.1204 57.707 14.4702 58.0107 13.7701 58.0412C13.0303 58.0735 12.3068 57.7931 11.7128 57.3907C11.544 57.2764 11.3021 57.0148 11.0303 56.7361C11.022 56.8022 11.015 56.8685 11.0076 56.9348C10.9896 57.0959 10.9721 57.2573 10.9589 57.4193C10.8962 58.1957 10.9606 59.06 11.292 59.7603C11.3592 59.9023 11.4379 60.037 11.5284 60.1631C11.737 60.4541 12.0084 60.6993 12.3619 60.8694C12.7081 61.0361 13.0995 61.1414 13.5198 61.1973C13.6282 61.2117 13.7381 61.2237 13.8504 61.2316C14.6001 61.2843 15.4267 61.1936 16.2555 61.0111C16.3663 60.9865 16.4769 60.9604 16.5876 60.9329C19.9914 58.799 22.2158 55.3622 23.0393 51.6989Z" fill="#C6CAD6"/>
<path d="M22.6936 43.3599C22.6945 43.4085 22.6972 43.457 22.702 43.5051C22.7604 44.0764 23.0464 44.6045 23.2582 45.1452C23.6109 46.0461 23.7152 46.962 23.6816 47.881C23.6349 49.1581 23.322 50.4412 23.0393 51.6989C22.2158 55.3622 19.9914 58.799 16.5876 60.9329C17.239 60.7704 17.8853 60.5556 18.4905 60.3119C19.4398 59.9291 20.2879 59.4763 20.8926 59.0475C20.9644 58.9966 21.0311 58.9437 21.0944 58.8892C21.9761 58.1318 22.0758 57.0498 22.4515 56.0073C22.903 54.7544 23.432 53.5241 24.0338 52.3243C24.0525 52.2868 24.0716 52.2494 24.0905 52.2119C24.5969 51.2115 25.1573 50.2339 25.7634 49.2804C25.5469 48.5866 25.3595 47.8869 25.1965 47.1831C24.0963 46.0748 23.2397 44.7675 22.6936 43.3599Z" fill="#A1A8C3"/>
<path d="M22.4012 42.4884C22.4041 42.499 22.4069 42.5093 22.4098 42.5196C22.486 42.5469 22.5703 42.5592 22.6524 42.5552C22.9006 42.5429 23.2474 42.424 23.5025 42.2557C23.6232 42.176 23.7233 42.085 23.7827 41.9892C23.8666 41.8534 23.8864 41.6939 23.9094 41.5398C24.0099 40.8649 24.2061 40.2023 24.4882 39.5714C24.4964 39.39 24.5104 39.209 24.5224 39.0278C23.8341 39.0604 23.1608 39.3272 22.7399 39.8185C22.516 40.0798 22.3779 40.3771 22.3031 40.6931C22.1681 41.2642 22.242 41.896 22.4012 42.4884Z" fill="#203A73"/>
<path d="M24.4813 39.8171C24.4842 39.7354 24.4844 39.6533 24.4882 39.5714C24.2061 40.2023 24.0099 40.8649 23.9094 41.5398C23.8864 41.6939 23.8666 41.8534 23.7827 41.9892C23.7233 42.085 23.6232 42.176 23.5025 42.2557C23.2474 42.424 22.9006 42.5429 22.6524 42.5552C22.5703 42.5592 22.486 42.5469 22.4098 42.5196C22.4371 42.6194 22.4661 42.7184 22.4976 42.8153C22.5574 42.9985 22.6237 43.1797 22.6936 43.3599C23.2397 44.7675 24.0963 46.0748 25.1965 47.1831C25.0749 46.6586 24.9682 46.1319 24.8766 45.6032C24.8102 45.2208 24.7493 44.8377 24.6988 44.4537C24.4965 42.9149 24.4249 41.3645 24.4813 39.8171Z" fill="#1F2A50"/>
<path d="M32.6352 60.0638C32.7182 60.2072 32.8042 60.3493 32.8967 60.4883C34.9896 62.3075 37.6459 63.5868 40.4795 64.133C42.2003 64.4649 43.9819 64.5257 45.726 64.3228C46.8051 64.0514 47.8344 63.6374 48.7681 63.0663C50.0019 62.3122 51.0313 61.2603 51.7232 60.0631C47.4462 61.5122 36.9142 61.5123 32.6352 60.0638Z" fill="#1F2A50"/>
<path d="M59.8722 39.7032C57.6454 40.6142 55.2969 41.2984 52.8979 41.7688C51.3524 42.0718 49.7849 42.2884 48.2081 42.4225C44.5129 42.7363 40.735 42.5667 37.0521 42.179C32.681 41.7185 28.4982 41.1712 24.4813 39.8171C24.4249 41.3645 24.4965 42.9149 24.6988 44.4537C24.7493 44.8377 24.8102 45.2208 24.8766 45.6032C26.6068 46.8395 28.3776 48.0291 30.3036 48.9914C35.3272 51.501 42.2222 52.6573 47.8757 51.3324C47.9469 51.3156 48.0181 51.2986 48.089 51.281C50.7098 50.6341 53.5579 48.1585 55.5214 46.5365C57.0946 45.2366 58.5445 43.8137 59.8549 42.2916C59.9008 41.4293 59.9071 40.5657 59.8722 39.7032Z" fill="#EBF2E5"/>
<path d="M38.6389 58.7258C35.4498 58.4334 32.2982 57.7748 29.2941 56.758C29.8187 57.565 30.3819 58.3545 30.9881 59.1215C31.2749 59.4844 31.851 59.7981 32.6352 60.0638C36.9142 61.5123 47.4462 61.5122 51.7232 60.0631C52.5066 59.7976 53.082 59.4841 53.3686 59.1215C53.9278 58.4141 54.4488 57.6865 54.9384 56.9449C54.4613 57.0983 53.9818 57.2459 53.4979 57.3813C48.7073 58.7223 43.6262 59.1833 38.6389 58.7258Z" fill="#C6CAD6"/>
<path d="M59.6579 44.4537C59.7525 43.7351 59.8163 43.0139 59.8549 42.2916C58.5445 43.8137 57.0946 45.2366 55.5214 46.5365C53.5579 48.1585 50.7098 50.6341 48.089 51.281C48.0181 51.2986 47.9469 51.3156 47.8757 51.3324C42.2222 52.6573 35.3272 51.501 30.3036 48.9914C28.3776 48.0291 26.6068 46.8395 24.8766 45.6032C24.9682 46.1319 25.0749 46.6586 25.1965 47.1831C25.3595 47.8869 25.5469 48.5866 25.7634 49.2804C26.5483 51.7962 27.6822 54.2367 29.1466 56.5325C30.1725 56.886 31.2155 57.1993 32.2728 57.4681C37.0558 58.6842 42.0942 59.0295 47.0233 58.4741C49.768 58.1649 52.4798 57.5809 55.0832 56.7271C56.6462 54.3169 57.8411 51.7435 58.6497 49.0885C58.8195 48.531 58.9741 47.9703 59.1097 47.4064C59.3442 46.4294 59.5279 45.4437 59.6579 44.4537Z" fill="#C6CAD6"/>
<path d="M47.0233 58.4741C42.0942 59.0295 37.0558 58.6842 32.2728 57.4681C31.2155 57.1993 30.1725 56.886 29.1466 56.5325C29.1949 56.6079 29.2451 56.6828 29.2941 56.758C32.2982 57.7748 35.4498 58.4334 38.6389 58.7258C43.6262 59.1833 48.7073 58.7223 53.4979 57.3813C53.9818 57.2459 54.4613 57.0983 54.9384 56.9449C54.9867 56.8722 55.0359 56.8002 55.0832 56.7271C52.4798 57.5809 49.768 58.1649 47.0233 58.4741Z" fill="#203A73"/>
<path d="M24.4813 39.8171C28.4982 41.1712 32.681 41.7185 37.0521 42.179C40.735 42.5667 44.5129 42.7363 48.2081 42.4225C49.7849 42.2884 51.3524 42.0718 52.8979 41.7688C55.2969 41.2984 57.6454 40.6142 59.8722 39.7032C59.8633 39.4848 59.8497 39.2669 59.8355 39.0487C59.8352 39.0408 59.8346 39.0327 59.834 39.0247C59.821 38.826 59.8081 38.6273 59.7908 38.4288C54.1147 38.9329 30.2419 38.9329 24.5661 38.4288C24.5486 38.6283 24.5354 38.828 24.5224 39.0278C24.5104 39.209 24.4964 39.39 24.4882 39.5714C24.4844 39.6533 24.4842 39.7354 24.4813 39.8171Z" fill="#A1A8C3"/>
<path d="M17.0321 22.7416C17.2283 21.963 17.5315 20.6388 17.5908 20.4519C17.8843 19.5259 18.2339 18.6133 18.6433 17.7243C18.7148 17.5691 18.8044 17.3486 18.9139 17.1132C19.2834 15.9565 19.728 14.8256 20.2421 13.7357C20.2997 13.6138 20.3579 13.492 20.4167 13.3704C19.4566 13.5599 18.6374 13.7962 18.3074 14.047C17.7908 14.4396 17.4488 14.955 17.1391 15.4694C15.8159 17.6675 15.0943 19.9495 14.9006 22.246C15.3616 22.5394 15.8429 22.8062 16.3451 23.0369C16.6245 23.1652 16.9622 23.0187 17.0321 22.7416Z" fill="#203A73"/>
<path d="M67.2175 15.4694C66.9079 14.955 66.5661 14.4396 66.0492 14.047C65.7189 13.796 64.8987 13.5595 63.9376 13.37C63.9976 13.4912 64.0567 13.6129 64.1145 13.7357C64.8833 15.3651 65.4988 17.0853 65.9345 18.8484C66.1219 19.0976 66.3047 19.2747 66.4215 19.5732C66.7085 20.3065 66.9496 21.0463 67.2447 21.7742C67.335 21.9968 67.4302 22.2182 67.5334 22.4379C68.2497 22.1653 68.8531 21.7871 69.3475 21.3082C69.0545 19.3292 68.3606 17.3679 67.2175 15.4694Z" fill="#203A73"/>
<path d="M69.5118 23.5008C69.5109 22.7689 69.4555 22.0375 69.3475 21.3082C68.8531 21.7871 68.2497 22.1653 67.5334 22.4379C67.4302 22.2182 67.335 21.9968 67.2447 21.7742C66.9496 21.0463 66.7085 20.3065 66.4215 19.5732C66.3047 19.2747 66.1219 19.0976 65.9345 18.8484C66.3021 20.3359 66.5412 21.8539 66.6352 23.3738C66.7918 25.9134 66.5437 28.4584 65.8107 30.8751C65.5054 31.8815 65.0849 32.9609 64.5384 34.0052C65.5617 33.7451 66.4462 33.438 66.7767 33.1493C67.2623 32.7252 67.5643 32.1895 67.834 31.6569C69.1966 28.9668 69.715 26.2123 69.5118 23.5008Z" fill="#1F2A50"/>
<path d="M17.6866 24.1687C17.7535 21.7875 18.184 19.3992 18.9139 17.1132C18.8044 17.3486 18.7148 17.5691 18.6433 17.7243C18.2339 18.6133 17.8843 19.5259 17.5908 20.4519C17.5315 20.6388 17.2283 21.963 17.0321 22.7416C16.9622 23.0187 16.6245 23.1652 16.3451 23.0369C15.8429 22.8062 15.3616 22.5394 14.9006 22.246C14.8654 22.664 14.8456 23.0823 14.845 23.5008C14.6417 26.2123 15.1602 28.9668 16.5228 31.6569C16.7925 32.1895 17.0945 32.7253 17.5799 33.1493C17.9104 33.438 18.795 33.7451 19.8185 34.0052C19.2719 32.9609 18.8513 31.8816 18.5461 30.8751C17.8897 28.7105 17.623 26.443 17.6866 24.1687Z" fill="#1F2A50"/>
<path d="M65.9345 18.8484C65.4988 17.0853 64.8833 15.3651 64.1145 13.7357C64.0567 13.6129 63.9976 13.4912 63.9376 13.37C63.1458 11.7674 62.1585 10.2931 60.5674 9.18733C57.7538 7.2324 26.9512 7.29614 23.7896 9.18733C22.1156 10.1886 21.1986 11.7539 20.4167 13.3704C20.3579 13.492 20.2997 13.6138 20.2421 13.7357C19.728 14.8256 19.2834 15.9565 18.9139 17.1132C18.184 19.3992 17.7535 21.7875 17.6866 24.1687C18.1789 24.6874 18.7161 25.1711 19.2899 25.6147C20.1133 26.2513 21.1214 27.2508 22.2247 26.5582C23.0892 26.0156 22.9191 25.0346 23.0014 24.196C23.0881 23.311 23.1862 22.4148 23.4142 21.549C23.5494 21.0352 23.7111 20.5264 23.8978 20.0253C24.3391 17.9561 25.2575 15.9911 26.8717 14.4441C27.2891 14.0441 34.8205 13.9001 42.1785 13.9342C49.5364 13.9001 57.0678 14.0441 57.4852 14.4441C58.8465 15.7487 59.712 17.3511 60.2151 19.0619C60.3372 19.2856 60.4528 19.5122 60.5589 19.7425C60.9495 20.5915 61.1968 21.4269 61.3317 22.3345L61.7681 25.2791C61.8432 25.7846 62.4316 26.0875 62.9438 25.8792C63.9647 25.4641 64.9204 24.9455 65.7448 24.2565C66.0847 23.9723 66.378 23.6775 66.6352 23.3738C66.5412 21.8539 66.3021 20.3359 65.9345 18.8484Z" fill="#EBF2E5"/>
<path d="M66.6352 23.3738C66.378 23.6775 66.0847 23.9723 65.7448 24.2565C64.9204 24.9455 63.9647 25.4641 62.9438 25.8792C62.4316 26.0875 61.8432 25.7846 61.7681 25.2791L61.3317 22.3345C61.1968 21.4269 60.9495 20.5915 60.5589 19.7425C60.4528 19.5122 60.3372 19.2856 60.2151 19.0619C60.549 20.1985 60.7237 21.3827 60.7747 22.5604C60.9048 23.1961 60.985 23.8456 61.0127 24.4975C61.122 27.0674 60.3191 33.1028 58.5634 33.8661C56.5939 34.7222 29.3942 33.903 27.4399 33.7573C25.816 33.6363 25.2751 32.8536 24.7909 31.445C24.3737 30.2306 24.123 28.9412 24.0526 27.6457C23.5397 25.3486 23.3472 22.6063 23.8978 20.0253C23.7111 20.5264 23.5494 21.0352 23.4142 21.549C23.1862 22.4148 23.0881 23.311 23.0014 24.196C22.9191 25.0346 23.0892 26.0156 22.2247 26.5582C21.1214 27.2508 20.1133 26.2513 19.2899 25.6147C18.7161 25.1711 18.1789 24.6874 17.6866 24.1687C17.623 26.443 17.8897 28.7105 18.5461 30.8751C18.8513 31.8816 19.2719 32.9609 19.8185 34.0052C20.6745 35.6408 21.8421 37.1897 23.3788 38.2311C23.4863 38.3038 23.9019 38.3698 24.5661 38.4288C30.2419 38.9329 54.1147 38.9329 59.7908 38.4288C60.4549 38.3698 60.8707 38.3038 60.978 38.2311C62.5147 37.1897 63.6821 35.6408 64.5384 34.0052C65.0849 32.9609 65.5054 31.8815 65.8107 30.8751C66.5437 28.4584 66.7918 25.9134 66.6352 23.3738Z" fill="#C6CAD6"/>
<path d="M57.8151 32.9319C57.3487 33.1821 49.6768 33.3042 42.1784 33.2981C34.68 33.3042 27.0079 33.1821 26.5417 32.9319C25.735 32.4988 24.6654 30.3903 24.0526 27.6457C24.123 28.9412 24.3737 30.2306 24.7909 31.445C25.2751 32.8536 25.816 33.6363 27.4399 33.7573C29.3942 33.903 56.5939 34.7222 58.5634 33.8661C60.3191 33.1028 61.122 27.0674 61.0127 24.4975C60.985 23.8456 60.9048 23.1961 60.7747 22.5604C60.9881 27.4675 59.0785 32.2536 57.8151 32.9319Z" fill="#A1A8C3"/>
<path d="M60.7747 22.5604C60.7237 21.3827 60.549 20.1985 60.2151 19.0619C59.712 17.3511 58.8465 15.7487 57.4852 14.4441C57.0678 14.0441 49.5364 13.9001 42.1785 13.9342C34.8205 13.9001 27.2891 14.0441 26.8717 14.4441C25.2575 15.9911 24.3391 17.9561 23.8978 20.0253C23.3472 22.6063 23.5397 25.3486 24.0526 27.6457C24.6654 30.3903 25.735 32.4988 26.5417 32.9319C27.0079 33.1821 34.68 33.3042 42.1784 33.2981C49.6768 33.3042 57.3487 33.1821 57.8151 32.9319C59.0785 32.2536 60.9881 27.4675 60.7747 22.5604Z" fill="#1F2A50"/>
<path d="M26.5432 22.1144C26.3055 23.1993 26.112 24.3506 26.5288 25.3899C27.1976 27.0568 29.2034 27.1971 30.8848 27.1337C30.9507 27.1313 31.0171 27.1278 31.083 27.1254C30.8149 26.6579 30.6752 26.1194 30.64 25.6049C30.553 24.3361 30.705 19.4389 31.4082 18.7443C32.4337 17.7313 34.6455 17.7206 35.6817 18.7443C36.3848 19.4392 36.5369 24.3361 36.4498 25.6049C36.4214 26.0187 36.3253 26.4475 36.1496 26.8428C38.7057 26.6546 41.2656 26.3921 43.7898 26.0258C45.1643 25.8262 46.5326 25.5924 47.8937 25.3283C47.841 23.7438 48.0157 19.3957 48.6751 18.7442C49.7007 17.7312 51.9124 17.7205 52.9487 18.7442C53.4512 19.2408 53.6721 21.8831 53.7257 23.814C54.3803 23.5245 55.0013 23.159 55.5837 22.6694C56.777 21.6656 57.7627 20.0352 56.9769 18.5673C56.5315 17.7346 55.6724 17.1321 54.7381 16.7631C53.804 16.3941 52.7889 16.2333 51.7839 16.0838C45.1392 15.0952 38.2997 14.4629 31.704 15.6934C30.8825 15.8466 29.9732 16.0154 29.2382 16.4003C28.5904 16.7396 28.2626 17.3798 27.9361 17.9841C27.2347 19.2825 26.8525 20.7025 26.5432 22.1144Z" fill="#203A73"/>
<path d="M35.6817 18.7443C34.6455 17.7206 32.4337 17.7313 31.4082 18.7443C30.705 19.4389 30.553 24.3361 30.64 25.6049C30.6752 26.1194 30.8149 26.6579 31.083 27.1254C31.2958 27.4969 31.5897 27.824 31.9776 28.0582C32.8191 28.5663 34.2435 28.5826 35.1122 28.0582C35.5956 27.7662 35.9331 27.3301 36.1496 26.8428C36.3253 26.4475 36.4214 26.0187 36.4498 25.6049C36.5369 24.3361 36.3848 19.4392 35.6817 18.7443Z" fill="#3EC0F0"/>
<path d="M48.6751 18.7442C48.0157 19.3957 47.841 23.7438 47.8937 25.3283C47.8972 25.4331 47.9017 25.5262 47.9072 25.6049C47.9704 26.5285 48.3689 27.5294 49.2446 28.0581C50.0861 28.5663 51.5104 28.5826 52.3791 28.0581C53.2551 27.5294 53.6535 26.5285 53.7168 25.6049C53.7416 25.243 53.7471 24.5849 53.7257 23.814C53.6721 21.8831 53.4512 19.2408 52.9487 18.7442C51.9124 17.7205 49.7007 17.7312 48.6751 18.7442Z" fill="#3EC0F0"/>
<path d="M40.4795 64.133C37.6459 63.5868 34.9896 62.3075 32.8967 60.4883C33.5753 61.5089 34.5028 62.4025 35.5889 63.0663C37.5136 64.2434 39.8461 64.7535 42.1781 64.7257C43.3795 64.74 44.5805 64.6115 45.726 64.3228C43.9819 64.5257 42.2003 64.4649 40.4795 64.133Z" fill="#203A73"/>
</svg>
